<?xml version="1.0" standalone="no"?><!DOCTYPE svg PUBLIC "-//W3C//DTD SVG 1.1//EN" "http://www.w3.org/Graphics/SVG/1.1/DTD/svg11.dtd"><svg t="1554386271949" class="icon" style="" viewBox="0 0 1024 1024" version="1.1" xmlns="http://www.w3.org/2000/svg" p-id="1516" xmlns:xlink="http://www.w3.org/1999/xlink" width="200" height="200"><defs><style type="text/css"></style></defs><path d="M857.5 986H597.9c-17.6 0-31.9-14.3-32-31.9l-0.7-233.2c-0.1-30.8-25.2-55.9-56-55.9h-16.8c-30.7 0-55.8 25-56 55.7L435 954.2c-0.1 17.6-14.4 31.8-32 31.8H187c-17.7 0-32-14.3-32-32V462.9H35.6c-17.7 0-32-14.3-32-32v-0.1c0-9.9 4.5-19.2 12.3-25.2L486.1 38.8c11.5-9 27.6-9 39.1-0.2l479.2 366.8c10.9 8.3 15.3 22.7 10.9 35.7-4.4 13-16.6 21.7-30.3 21.7H879.6l9.8 490.6c0.2 8.6-3.1 16.9-9.1 23s-14.2 9.6-22.8 9.6z m-227.7-64h195L815 431.4c-0.2-8.6 3.1-16.9 9.1-23s14.3-9.6 22.9-9.6h43.5L506 104.4 128.5 398.9H187c17.7 0 32 14.3 32 32V922h152.2l1.2-201.7c0.2-31.9 12.8-61.9 35.4-84.4 22.6-22.5 52.7-34.9 84.6-34.9h16.8c66 0 119.9 53.7 120 119.7l0.6 201.3z" p-id="1517" fill="#ffffff"></path></svg>